<svg width="155" height="118" viewBox="0 0 155 118" fill="none" xmlns="http://www.w3.org/2000/svg">
<path d="M19.2738 113.98C19.3242 113.375 19.1224 112.82 18.7188 112.365C18.2142 111.911 17.6087 111.71 16.9528 111.76C16.0446 111.81 15.1869 112.113 14.4805 112.668L14.9346 113.476L15.3887 113.324C15.8428 113.173 16.2969 113.072 16.751 113.072C17.0537 113.021 17.3565 113.122 17.5583 113.324C17.7096 113.526 17.8106 113.728 17.7601 113.98V114.333C17.2555 114.182 16.7005 114.131 16.1455 114.131C14.9346 114.131 14.1777 114.686 14.1777 115.696C14.1777 116.755 15.0355 117.613 16.0951 117.562C16.1455 117.562 16.196 117.562 16.2464 117.562C16.751 117.562 17.2555 117.411 17.6592 117.159L17.9619 117.007C18.2142 117.31 18.5674 117.512 18.971 117.512C19.3242 117.512 19.6774 117.411 20.0306 117.26V116.452L19.2738 116.301V113.98ZM17.8106 115.897C17.8106 115.998 17.7601 116.049 17.6592 116.099C17.306 116.251 16.9528 116.301 16.5492 116.301C15.9437 116.301 15.641 115.998 15.641 115.544C15.641 115.241 15.7419 115.09 16.0951 115.09H17.6592C17.7601 115.09 17.7601 115.09 17.7601 115.191V115.897H17.8106Z" fill="#005F5E"/>
<path d="M5.9538 110.751C5.19696 110.095 4.03648 109.792 2.57325 109.792H0V117.411H2.5228C4.03648 117.411 5.14651 117.108 5.90334 116.452C7.41702 114.838 7.41702 112.365 5.9538 110.751ZM4.84377 115.393C4.38967 115.847 3.63283 115.998 2.5228 115.998H1.56413V111.154H2.47234C3.58237 111.154 4.33921 111.306 4.79331 111.76C5.24742 112.264 5.44924 112.92 5.39879 113.526C5.44924 114.283 5.24742 114.888 4.84377 115.393Z" fill="#005F5E"/>
<path d="M10.7471 111.76C9.13249 111.76 7.87109 113.072 7.87109 114.687C7.87109 116.301 9.18295 117.563 10.7975 117.563C11.7057 117.563 12.614 117.21 13.3203 116.604L12.8662 115.746L12.2103 115.948C11.8067 116.099 11.3526 116.2 10.8985 116.2C9.99024 116.2 9.48568 115.746 9.43523 115.09H13.1185C13.2194 115.09 13.3203 115.09 13.3708 114.939C13.4212 114.788 13.4212 114.586 13.4212 114.434C13.4212 112.971 12.2608 111.76 10.848 111.76C10.7975 111.76 10.7975 111.76 10.7471 111.76ZM9.48568 114.031C9.5866 113.425 10.1416 112.971 10.7471 113.022C11.3526 112.971 11.958 113.425 12.0085 114.031H9.48568Z" fill="#005F5E"/>
<path d="M29.7689 114.182H33.3008V112.87H29.7689V111.154H33.654V109.792H28.1543V117.411H33.7549V116.099H29.7689V114.182Z" fill="#005F5E"/>
<path d="M38.751 112.264C38.2969 111.962 37.7419 111.76 37.1869 111.76C35.7741 111.76 34.6641 112.971 34.6641 114.686C34.6641 116.402 35.6732 117.562 37.1869 117.562C37.641 117.562 38.0951 117.411 38.4987 117.159L38.9024 116.906L39.1042 117.411H40.2142V109.288H38.751V112.264ZM38.751 115.696C38.751 115.796 38.751 115.847 38.6501 115.897C38.2969 116.049 37.8932 116.15 37.4896 116.15C36.6318 116.15 36.1777 115.796 36.1777 114.636C36.1777 113.475 36.6318 113.122 37.4896 113.122C37.8932 113.122 38.2969 113.223 38.6501 113.375C38.751 113.425 38.751 113.475 38.751 113.576V115.696Z" fill="#005F5E"/>
<path d="M21.0397 111.003C21.0397 111.306 21.0902 111.609 21.1911 111.861L20.2324 112.063V112.971H21.2415V117.411H22.7048V112.971H24.5716V111.81H22.6543C22.5534 111.609 22.5534 111.356 22.5534 111.154C22.5534 110.65 22.8561 110.448 23.4111 110.448C23.6634 110.448 23.9662 110.499 24.2184 110.549L24.7735 110.65L25.1266 109.742C24.5212 109.338 23.8653 109.136 23.1589 109.136C21.7966 109.187 21.0397 109.944 21.0397 111.003Z" fill="#005F5E"/>
<path d="M66.9554 111.81H65.4922V117.411H66.9554V111.81Z" fill="#005F5E"/>
<path d="M120.185 111.76C118.57 111.76 117.309 113.072 117.309 114.687C117.309 116.301 118.62 117.563 120.235 117.563C121.143 117.563 122.051 117.21 122.758 116.604L122.304 115.797L121.698 115.999C121.295 116.15 120.841 116.251 120.386 116.251C119.478 116.251 118.974 115.797 118.923 115.141H122.606C122.707 115.141 122.808 115.141 122.859 114.989C122.909 114.838 122.909 114.636 122.909 114.485C122.96 113.022 121.799 111.811 120.336 111.811C120.285 111.76 120.235 111.76 120.185 111.76ZM118.873 114.031C119.075 113.324 119.781 112.921 120.437 113.072C120.891 113.173 121.244 113.526 121.396 114.031H118.873Z" fill="#005F5E"/>
<path d="M128.715 113.98C128.765 113.375 128.564 112.82 128.16 112.365C127.655 111.911 127.05 111.71 126.394 111.76C125.486 111.81 124.628 112.113 123.922 112.668L124.376 113.476L124.83 113.324C125.284 113.173 125.738 113.072 126.192 113.072C126.495 113.021 126.798 113.122 126.999 113.324C127.151 113.526 127.252 113.728 127.201 113.98V114.333C126.697 114.182 126.142 114.131 125.587 114.131H125.536C124.325 114.131 123.568 114.686 123.568 115.696C123.568 116.755 124.426 117.613 125.486 117.562C125.536 117.562 125.587 117.562 125.637 117.562C126.142 117.562 126.646 117.411 127.05 117.159L127.353 117.007C127.605 117.31 127.958 117.512 128.362 117.512C128.715 117.512 129.068 117.411 129.421 117.26V116.452L128.664 116.301L128.715 113.98ZM127.201 115.897C127.201 115.998 127.151 116.049 127.05 116.099C126.697 116.251 126.343 116.301 125.94 116.301C125.334 116.301 125.032 115.998 125.032 115.544C125.032 115.241 125.132 115.09 125.486 115.09H127.1C127.201 115.09 127.201 115.09 127.201 115.191V115.897Z" fill="#005F5E"/>
<path d="M113.78 114.585L116.404 111.104C116.505 111.003 116.555 110.852 116.555 110.7V109.792H110.602V111.104H114.638C114.335 111.457 113.881 112.012 113.427 112.618L110.803 116.099C110.702 116.2 110.652 116.351 110.652 116.503V117.36H116.656V116.049H112.62C112.923 115.645 113.377 115.09 113.78 114.585Z" fill="#005F5E"/>
<path d="M51.3641 93.848L52.0201 94.0499L52.6255 93.848C59.7398 91.4766 63.9781 87.0365 63.9781 81.9404V0H0V12.0085V72.0006C0 77.0462 4.2383 81.5368 11.3526 83.9082L12.0085 84.1101L12.614 83.9082H12.7654V83.8578C15.3891 83 17.8614 81.6882 19.9806 79.8718V81.9909C19.9806 87.0365 24.2189 91.5271 31.3331 93.8985L31.9891 94.1003L32.645 93.8985C36.8833 92.4857 40.1125 90.3161 41.9793 87.7429C43.8967 90.3161 47.1258 92.4353 51.3641 93.848ZM52.676 3.98602H59.9921V21.9988C59.9921 24.9252 57.217 27.8012 52.676 29.6176V3.98602ZM52.676 33.8559C55.3502 32.9982 57.8225 31.6359 59.9921 29.8699V51.9696C59.9921 54.8961 57.217 57.7721 52.676 59.5885V33.8559ZM52.676 63.8772C55.3502 63.0195 57.8225 61.6572 59.9921 59.8912V81.9909C59.9921 84.9173 57.217 87.7933 52.676 89.6098V63.8772ZM11.403 79.6195C6.81155 77.8031 3.98602 74.9271 3.98602 71.9502V39.8602C6.15562 41.6766 8.67842 43.0389 11.3526 43.8462H11.403V79.6195ZM11.403 39.6584C6.81155 37.842 3.98602 34.966 3.98602 31.9891V19.8796C6.15562 21.6961 8.67842 23.0584 11.3526 23.8657H11.403V39.6584ZM11.403 19.6778C6.7611 17.8614 3.98602 14.9854 3.98602 12.0085V3.98602H11.403V19.6778ZM19.9806 41.9793V71.9502C19.9806 74.8766 17.2559 77.7022 12.7654 79.5186V43.8462C15.3891 42.9885 17.8614 41.6766 19.9806 39.9106V41.9793ZM19.9806 21.9988V31.9891C19.9806 34.9155 17.2559 37.741 12.7654 39.5575V23.8657C15.3891 23.0079 17.8614 21.6961 19.9806 19.9301V21.9988ZM19.9806 12.0085C19.9806 14.935 17.2559 17.7605 12.7654 19.5769V3.98602H19.9806V12.0085ZM31.2827 89.6098C26.7416 87.7933 23.9666 84.9173 23.9666 81.9909V72.0006V49.8505C26.1362 51.6164 28.6085 52.9787 31.2827 53.8365V89.6098ZM31.2827 49.5982C26.7416 47.7818 23.9666 44.9058 23.9666 41.9793V19.8796C26.1362 21.6456 28.6085 23.0079 31.2827 23.8657V49.5982ZM31.2827 19.6274C26.7416 17.8109 23.9666 14.935 23.9666 12.0085V3.98602H31.2827V19.6274ZM43.9976 12.0085V3.98602H51.3137V29.6176C46.7727 27.8012 43.9976 24.9252 43.9976 21.9988V12.0085ZM43.9976 41.9793V29.8699C46.1672 31.6863 48.6395 32.9982 51.3137 33.8559V59.5885C46.7727 57.7721 43.9976 54.8961 43.9976 51.9696V41.9793ZM43.9976 59.8912C46.1672 61.7076 48.6395 63.0699 51.3137 63.8772V89.6098C46.7727 87.7933 43.9976 84.9173 43.9976 81.9909V59.8912ZM32.645 3.98602H40.0116V12.0085C40.0116 14.935 37.2365 17.8109 32.645 19.6274V3.98602ZM32.645 23.8657C35.3192 23.0584 37.842 21.6961 39.9611 19.8796V41.9793C39.9611 44.9562 37.186 47.7818 32.5945 49.5982V23.8657H32.645ZM39.9611 81.9909C39.9611 84.9173 37.186 87.7933 32.5945 89.6098V53.8869C35.2687 53.0292 37.7915 51.6669 39.9611 49.9009V81.9909Z" fill="#005F5E"/>
<path d="M106.209 111.962L105.654 113.728C105.402 114.485 105.099 115.444 104.998 115.898C104.898 115.444 104.595 114.434 104.342 113.678L103.787 111.962C103.737 111.811 103.687 111.811 103.535 111.811H102.274L101.719 113.627C101.466 114.485 101.214 115.343 101.113 115.847C100.962 115.191 100.71 114.434 100.457 113.627L99.9024 111.912C99.8519 111.811 99.8014 111.76 99.7005 111.76H98.3887L100.306 117.26C100.356 117.361 100.407 117.411 100.508 117.411H101.971L102.577 115.444C102.728 114.838 102.93 114.132 103.031 113.728C103.132 114.132 103.333 114.838 103.535 115.444L104.09 117.31C104.141 117.411 104.191 117.462 104.342 117.462H105.806L107.723 111.861H106.411C106.31 111.811 106.209 111.861 106.209 111.962Z" fill="#005F5E"/>
<path d="M150.407 109.288V112.264C149.953 111.962 149.398 111.76 148.843 111.76C147.43 111.76 146.32 112.971 146.32 114.686C146.32 116.402 147.329 117.562 148.843 117.562C149.297 117.562 149.751 117.411 150.155 117.159L150.559 116.906L150.76 117.411H151.87V109.288H150.407ZM150.407 115.696C150.407 115.796 150.407 115.847 150.306 115.897C149.953 116.049 149.549 116.15 149.146 116.15C148.288 116.15 147.834 115.796 147.834 114.636C147.834 113.475 148.288 113.122 149.146 113.122C149.549 113.122 149.953 113.223 150.306 113.375C150.407 113.425 150.407 113.475 150.407 113.576V115.696Z" fill="#005F5E"/>
<path d="M131.791 109.288H130.328V116.099C130.328 116.452 130.429 116.856 130.681 117.108C130.934 117.361 131.287 117.461 131.64 117.461C132.044 117.461 132.397 117.361 132.75 117.209V116.452L131.791 116.251V109.288Z" fill="#005F5E"/>
<path d="M143.043 111.76C142.589 111.76 142.185 111.912 141.782 112.113L141.327 112.366L141.126 111.861H140.016V117.462H141.479V113.526C141.479 113.425 141.479 113.324 141.58 113.324C141.933 113.223 142.286 113.173 142.639 113.173C142.942 113.123 143.245 113.223 143.497 113.425C143.648 113.577 143.699 113.829 143.699 114.031V117.512H145.162V113.98C145.213 112.87 144.355 111.912 143.245 111.811C143.194 111.76 143.093 111.76 143.043 111.76Z" fill="#005F5E"/>
<path d="M138.4 113.98C138.451 113.375 138.249 112.82 137.845 112.365C137.341 111.911 136.735 111.659 136.079 111.709C135.171 111.76 134.313 112.063 133.607 112.618L134.061 113.425L134.515 113.274C134.969 113.122 135.424 113.021 135.878 113.021C136.18 112.971 136.483 113.072 136.685 113.274C136.836 113.475 136.937 113.677 136.887 113.93V114.283C136.382 114.131 135.827 114.081 135.272 114.081H135.222C134.011 114.081 133.254 114.636 133.254 115.645C133.254 116.705 134.112 117.562 135.171 117.512C135.222 117.512 135.272 117.512 135.323 117.512C135.827 117.512 136.332 117.361 136.735 117.108L137.038 116.957C137.29 117.26 137.644 117.461 138.047 117.461C138.4 117.461 138.754 117.361 139.107 117.209V116.402L138.35 116.251V113.98H138.4ZM136.937 115.897C136.937 115.998 136.887 116.049 136.786 116.099C136.433 116.251 136.079 116.301 135.676 116.301C135.07 116.301 134.768 115.998 134.768 115.544C134.768 115.241 134.868 115.09 135.222 115.09H136.836C136.937 115.09 136.988 115.09 136.988 115.191V115.897H136.937Z" fill="#005F5E"/>
<path d="M95.3623 111.76C93.7477 111.76 92.4863 113.072 92.4863 114.687C92.4863 116.301 93.7982 117.563 95.4128 117.563C96.321 117.563 97.2292 117.21 97.9356 116.604L97.4815 115.797L96.876 115.999C96.4723 116.15 96.0182 116.251 95.5641 116.251C94.6559 116.251 94.1514 115.797 94.1009 115.141H97.7842C97.8851 115.141 97.986 115.141 98.0365 114.989C98.0869 114.838 98.0869 114.636 98.0869 114.485C98.1374 113.022 96.9769 111.811 95.5137 111.811C95.4632 111.76 95.4128 111.76 95.3623 111.76ZM94.1009 114.031C94.3027 113.324 95.0091 112.921 95.6651 113.072C96.1192 113.173 96.4723 113.526 96.6237 114.031H94.1009Z" fill="#005F5E"/>
<path d="M58.9844 113.98C59.0349 113.375 58.833 112.82 58.4294 112.365C57.9248 111.911 57.3194 111.709 56.6634 111.709C55.7552 111.76 54.8975 112.063 54.1911 112.618L54.6452 113.425L55.0993 113.274C55.5534 113.122 56.0075 113.021 56.4616 113.021C56.7643 112.971 57.0671 113.072 57.2689 113.274C57.4203 113.475 57.5212 113.677 57.4707 113.93V114.283C56.9662 114.131 56.4111 114.081 55.8561 114.081H55.8057C54.5947 114.081 53.8379 114.636 53.8379 115.645C53.8379 116.705 54.6956 117.562 55.7552 117.512C55.8057 117.512 55.8561 117.512 55.9066 117.512C56.4111 117.512 56.9157 117.361 57.3194 117.108L57.6221 116.957C57.8744 117.26 58.2276 117.461 58.5808 117.461C58.9339 117.461 59.2871 117.361 59.6403 117.209V116.402L58.8835 116.251L58.9844 113.98ZM57.5212 115.897C57.5212 115.998 57.4707 116.049 57.3698 116.099C57.0166 116.251 56.613 116.301 56.2598 116.301C55.6543 116.301 55.3516 115.998 55.3516 115.544C55.3516 115.241 55.4525 115.09 55.8057 115.09H57.4203C57.5212 115.09 57.5212 115.09 57.5212 115.191V115.897Z" fill="#005F5E"/>
<path d="M63.7269 116.099C63.4746 116.149 63.2223 116.2 62.9701 116.2C62.7682 116.2 62.6169 116.149 62.4655 116.049C62.3646 115.897 62.3141 115.746 62.3141 115.544V113.021H64.181V111.861H62.3141V110.246H60.8509V111.861L59.8418 112.063V112.971H60.8509V115.594C60.8005 116.149 61.0023 116.654 61.3555 117.058C61.7087 117.36 62.2132 117.562 62.6673 117.512C63.3737 117.461 64.0296 117.259 64.5846 116.805L64.2315 115.998L63.7269 116.099Z" fill="#005F5E"/>
<path d="M52.0726 115.897C51.669 116.049 51.2653 116.15 50.8112 116.2C49.8525 116.2 49.3984 115.695 49.3984 114.585C49.3984 113.576 49.903 113.072 50.5589 113.072C51.013 113.072 51.4167 113.274 51.669 113.627L52.1735 114.131L53.1322 113.627C52.8294 112.517 51.7699 111.709 50.6094 111.709C49.0957 111.709 47.8848 112.971 47.8848 114.485C47.8848 114.535 47.8848 114.535 47.8848 114.585C47.8848 116.351 48.9948 117.512 50.6598 117.512C51.6185 117.461 52.5267 117.108 53.2331 116.452L52.7285 115.645L52.0726 115.897Z" fill="#005F5E"/>
<path d="M45.309 115.746C45.309 115.847 45.309 115.947 45.2081 115.998C44.9053 116.099 44.5521 116.149 44.1989 116.149C43.8962 116.2 43.5935 116.099 43.3412 115.897C43.1898 115.746 43.1394 115.493 43.1394 115.292V111.81H41.6257V115.342C41.5248 116.452 42.3321 117.411 43.4926 117.512C43.5935 117.512 43.7448 117.512 43.8458 117.512C44.2999 117.512 44.754 117.36 45.1576 117.108L45.4603 116.957L45.6622 117.461H46.7722V111.861H45.309V115.746Z" fill="#005F5E"/>
<path d="M89.7614 114.989C89.5596 114.686 89.0046 113.98 88.5 113.374L85.7754 109.943C85.7249 109.842 85.624 109.792 85.4727 109.792H84.2617V117.411H85.7754V112.214C85.9772 112.466 86.3809 113.072 86.7845 113.576L89.711 117.259C89.7614 117.36 89.9128 117.411 90.0137 117.411H91.1742V109.792H89.6605L89.7614 114.989Z" fill="#005F5E"/>
<path d="M66.6527 109.489H65.4922V110.952H66.9554V109.792C66.9554 109.54 66.905 109.489 66.6527 109.489Z" fill="#005F5E"/>
<path d="M77.9046 111.76C77.4505 111.76 77.0469 111.912 76.6937 112.113L76.2396 112.366L76.0378 111.861H74.9277V117.462H76.391V113.526C76.391 113.425 76.391 113.324 76.4919 113.324C76.8451 113.223 77.1983 113.173 77.5514 113.173C77.8542 113.123 78.1569 113.223 78.4092 113.425C78.5606 113.577 78.611 113.829 78.611 114.031V117.512H80.0743V113.98C80.1247 112.87 79.267 111.912 78.1569 111.811C78.056 111.76 77.9551 111.76 77.9046 111.76Z" fill="#005F5E"/>
<path d="M70.9401 111.76C69.3255 111.76 68.0137 113.072 68.0137 114.636C68.0137 116.251 69.3255 117.512 70.8897 117.512H70.9401C72.5547 117.512 73.8161 116.2 73.8161 114.636C73.8161 113.022 72.5547 111.76 70.9401 111.76ZM70.9401 116.15C70.0319 116.15 69.5778 115.645 69.5778 114.636C69.5778 113.627 70.0319 113.123 70.8897 113.123H70.9401C71.8483 113.123 72.252 113.627 72.252 114.636C72.252 115.645 71.8483 116.15 70.9401 116.15Z" fill="#005F5E"/>
<path d="M130.023 80.78C129.973 79.4681 130.477 78.1562 131.335 77.1471C133.152 75.2803 136.179 75.2298 138.046 77.0462C138.096 77.0967 138.096 77.0967 138.147 77.1471C139.055 78.1058 139.56 79.4176 139.509 80.7295C139.56 82.0414 139.055 83.3028 138.147 84.2614C136.28 86.1283 133.202 86.1283 131.335 84.2614C130.427 83.3028 129.973 81.9909 130.023 80.679V80.78ZM127.803 73.918C124.019 77.6517 123.969 83.7064 127.702 87.4906C127.753 87.5411 127.753 87.5411 127.803 87.5915C129.67 89.4079 132.142 90.417 134.766 90.3666C137.39 90.417 139.913 89.4079 141.78 87.5915C145.564 83.9587 145.665 77.9544 142.032 74.2207C141.931 74.1198 141.88 74.0693 141.78 73.9684C137.844 70.2347 131.739 70.2347 127.803 73.918ZM108.832 78.9131C109.084 77.8535 109.639 76.8949 110.446 76.1885C111.203 75.5325 112.212 75.1794 113.222 75.1794C114.231 75.1794 115.24 75.5325 115.997 76.1885C116.753 76.8949 117.208 77.8535 117.208 78.9131H108.832ZM103.837 80.7295C103.786 83.3028 104.795 85.8256 106.713 87.5915C108.63 89.4584 111.254 90.417 113.928 90.3666C116.653 90.3666 119.226 89.4079 121.244 87.642L119.175 84.211C117.712 85.3714 115.946 86.0274 114.079 86.0778C112.868 86.1283 111.708 85.7751 110.749 85.1192C109.841 84.4632 109.185 83.5046 108.933 82.445H121.849C122.051 81.5368 122.152 80.6286 122.203 79.7204C122.354 75.1289 118.721 71.2942 114.13 71.1933C113.928 71.1933 113.726 71.1933 113.575 71.1933C108.327 71.1429 104.039 75.3307 103.988 80.5781C103.837 80.5781 103.837 80.679 103.837 80.7295ZM108.933 47.9836C108.933 51.5155 106.612 53.0292 104.291 53.0292C101.718 53.0292 99.548 51.1119 99.548 47.9836C99.548 44.8553 101.718 42.8875 104.291 42.8875C106.612 42.938 108.933 44.5021 108.933 47.9836ZM109.286 38.8006V41.1216C108.025 39.4061 105.956 38.397 103.383 38.397C98.1856 38.397 94.4519 42.4839 94.4519 47.9836C94.4519 53.4833 98.1856 57.5702 103.383 57.5702C105.855 57.5702 107.924 56.662 109.185 54.997V57.1666H113.877V38.8006H109.286ZM88.1954 69.8815H92.3832C93.3923 69.831 94.351 70.1842 95.1078 70.8401C95.7638 71.4961 96.1674 72.4043 96.1169 73.3629C96.1674 74.3216 95.8142 75.2298 95.1583 75.9362C94.4014 76.5921 93.4428 76.9453 92.4337 76.8948H88.2458L88.1954 69.8815ZM92.3832 65.4414H83.2002V89.9125H88.1954V81.2341H91.8787L98.2361 89.862H103.887L96.9242 80.2249C98.2361 79.6195 99.2957 78.6104 100.053 77.3994C100.809 76.138 101.213 74.7252 101.213 73.262C101.314 71.0924 100.406 68.9733 98.7407 67.51C97.1261 66.1477 95.0069 65.4414 92.3832 65.4414ZM95.0069 32.6955H76.3887V37.2365H83.1498V57.1666H88.1449V37.2365H94.9565L95.0069 32.6955ZM83.2002 24.4711H88.1954V0H83.2002V24.4711ZM94.3005 12.2608L104.442 0H98.3875L88.1954 12.2608L98.337 24.5216H104.392L94.3005 12.2608ZM118.519 15.3386C118.57 16.6505 118.065 17.9623 117.157 18.921C115.29 20.7878 112.212 20.7878 110.346 18.921C109.437 17.9623 108.983 16.6505 109.034 15.3386C108.983 14.0268 109.488 12.7149 110.346 11.7058C112.162 9.83891 115.189 9.78845 117.056 11.6049C117.107 11.6553 117.107 11.6553 117.157 11.7058C118.065 12.6644 118.519 13.9763 118.519 15.3386ZM120.739 22.0997C124.524 18.4669 124.574 12.4626 120.941 8.67842C120.891 8.62797 120.79 8.52705 120.739 8.4766C116.804 4.79331 110.699 4.79331 106.814 8.4766C104.947 10.2426 103.887 12.7149 103.938 15.2881C103.887 17.8614 104.896 20.3337 106.763 22.1502C108.63 23.9666 111.102 24.9757 113.726 24.9252C116.35 24.9252 118.873 23.9161 120.739 22.0997ZM123.262 57.217V32.6955H118.267V57.1666H123.262V57.217ZM135.674 57.217L129.014 48.0341L135.674 38.8511H129.922L123.262 48.0341L129.922 57.217H135.674ZM154.999 49.1441V38.8511H150.004V49.5477C150.054 50.5064 149.701 51.4146 148.995 52.121C148.339 52.7769 147.481 53.1301 146.573 53.0796C144.706 53.1806 143.142 51.7173 143.091 49.9009C143.091 49.8 143.091 49.6991 143.091 49.5477V38.8511H138.046V49.1441C138.046 51.7173 138.853 53.786 140.468 55.3502C142.082 56.9143 144.302 57.7721 146.522 57.6711C148.793 57.7721 150.963 56.9143 152.577 55.2997C154.192 53.7356 154.999 51.6669 154.999 49.1441Z" fill="#005F5E"/>
</svg>
